<mxfile host="app.diagrams.net" agent="Mozilla/5.0 (Windows NT 10.0; Win64; x64) AppleWebKit/537.36 (KHTML, like Gecko) Chrome/141.0.0.0 Safari/537.36 Edg/141.0.0.0" version="28.2.5">
  <diagram name="Page-1" id="MRRp5tJ-PZGCDSaA3yxu">
    <mxGraphModel dx="2604" dy="999" grid="1" gridSize="10" guides="1" tooltips="1" connect="1" arrows="1" fold="1" page="1" pageScale="1" pageWidth="827" pageHeight="1169" math="0" shadow="0">
      <root>
        <mxCell id="0" />
        <mxCell id="1" parent="0" />
        <mxCell id="2" value="เริ่มต้นระบบตะพาบลอย" style="ellipse;whiteSpace=wrap;html=1;" vertex="1" parent="1">
          <mxGeometry x="120" y="30" width="160" height="60" as="geometry" />
        </mxCell>
        <mxCell id="3" value="ลูกค้าเลือกประเภทสินค้า&#xa;(น้ำ หรือ ขนม)" style="rhombus;whiteSpace=wrap;html=1;" vertex="1" parent="1">
          <mxGeometry x="100" y="110" width="200" height="80" as="geometry" />
        </mxCell>
        <mxCell id="4" value="แสดงเมนูน้ำ&#xa;- โค้ก 10&#xa;- น้ำเขียว 12&#xa;- อเมริกาโน่ 30&#xa;- ลาเต้ 35" style="shape=parallelogram;whiteSpace=wrap;html=1;" vertex="1" parent="1">
          <mxGeometry x="-170" y="190" width="260" height="80" as="geometry" />
        </mxCell>
        <mxCell id="5" value="แสดงเมนูขนม&#xa;- เมล็ดทานตะวัน 13&#xa;- ถั่วแปบ 20&#xa;- จิ้นส้มหมก 15" style="shape=parallelogram;whiteSpace=wrap;html=1;" vertex="1" parent="1">
          <mxGeometry x="300" y="190" width="260" height="80" as="geometry" />
        </mxCell>
        <mxCell id="6" value="ลูกค้าเลือกสินค้าย่อยและจำนวน" style="shape=parallelogram;whiteSpace=wrap;html=1;" vertex="1" parent="1">
          <mxGeometry x="80" y="320" width="240" height="60" as="geometry" />
        </mxCell>
        <mxCell id="7" value="ตรวจสอบ Stock สินค้าที่เลือก" style="rhombus;whiteSpace=wrap;html=1;" vertex="1" parent="1">
          <mxGeometry x="100" y="400" width="200" height="80" as="geometry" />
        </mxCell>
        <mxCell id="8" value="ลดจำนวน Stock ตามรายการ" style="rounded=0;whiteSpace=wrap;html=1;" vertex="1" parent="1">
          <mxGeometry x="380" y="410" width="200" height="60" as="geometry" />
        </mxCell>
        <mxCell id="q7gl-ZAWF5QUCbo0LGxk-46" style="edgeStyle=orthogonalEdgeStyle;rounded=0;orthogonalLoop=1;jettySize=auto;html=1;entryX=0;entryY=0.5;entryDx=0;entryDy=0;exitX=0.102;exitY=0.469;exitDx=0;exitDy=0;exitPerimeter=0;" edge="1" parent="1" source="9" target="q7gl-ZAWF5QUCbo0LGxk-42">
          <mxGeometry relative="1" as="geometry">
            <Array as="points">
              <mxPoint x="120" y="540" />
              <mxPoint x="40" y="540" />
              <mxPoint x="40" y="935" />
            </Array>
          </mxGeometry>
        </mxCell>
        <mxCell id="9" value="แจ้งว่า &quot;สินค้าหมด&quot;" style="shape=parallelogram;whiteSpace=wrap;html=1;" vertex="1" parent="1">
          <mxGeometry x="100" y="510" width="200" height="60" as="geometry" />
        </mxCell>
        <mxCell id="10" value="รวมยอดขายและรายการทั้งหมด" style="rounded=0;whiteSpace=wrap;html=1;" vertex="1" parent="1">
          <mxGeometry x="360" y="490" width="240" height="60" as="geometry" />
        </mxCell>
        <mxCell id="11" value="ลูกค้าชำระเงิน" style="shape=parallelogram;whiteSpace=wrap;html=1;" vertex="1" parent="1">
          <mxGeometry x="380" y="570" width="200" height="60" as="geometry" />
        </mxCell>
        <mxCell id="q7gl-ZAWF5QUCbo0LGxk-37" style="edgeStyle=orthogonalEdgeStyle;rounded=0;orthogonalLoop=1;jettySize=auto;html=1;entryX=0.5;entryY=0;entryDx=0;entryDy=0;" edge="1" parent="1" source="12" target="13">
          <mxGeometry relative="1" as="geometry" />
        </mxCell>
        <mxCell id="12" value="คำนวณเงินทอนและอัปเดตยอดเงินในตู้" style="rounded=0;whiteSpace=wrap;html=1;" vertex="1" parent="1">
          <mxGeometry x="350" y="650" width="260" height="60" as="geometry" />
        </mxCell>
        <mxCell id="q7gl-ZAWF5QUCbo0LGxk-38" style="edgeStyle=orthogonalEdgeStyle;rounded=0;orthogonalLoop=1;jettySize=auto;html=1;entryX=0.5;entryY=0;entryDx=0;entryDy=0;" edge="1" parent="1" source="13" target="14">
          <mxGeometry relative="1" as="geometry" />
        </mxCell>
        <mxCell id="13" value="แสดงเหรียญและธนบัตรที่เหลือในตู้" style="shape=parallelogram;whiteSpace=wrap;html=1;" vertex="1" parent="1">
          <mxGeometry x="350" y="730" width="260" height="60" as="geometry" />
        </mxCell>
        <mxCell id="q7gl-ZAWF5QUCbo0LGxk-39" style="edgeStyle=orthogonalEdgeStyle;rounded=0;orthogonalLoop=1;jettySize=auto;html=1;entryX=1;entryY=0.5;entryDx=0;entryDy=0;" edge="1" parent="1" source="14" target="15">
          <mxGeometry relative="1" as="geometry" />
        </mxCell>
        <mxCell id="14" value="ต้องการเติม Stock หรือไม่?" style="rhombus;whiteSpace=wrap;html=1;" vertex="1" parent="1">
          <mxGeometry x="380" y="810" width="200" height="80" as="geometry" />
        </mxCell>
        <mxCell id="q7gl-ZAWF5QUCbo0LGxk-43" value="" style="edgeStyle=orthogonalEdgeStyle;rounded=0;orthogonalLoop=1;jettySize=auto;html=1;" edge="1" parent="1" source="15" target="q7gl-ZAWF5QUCbo0LGxk-42">
          <mxGeometry relative="1" as="geometry" />
        </mxCell>
        <mxCell id="15" value="เติม Stock สินค้า" style="rounded=0;whiteSpace=wrap;html=1;" vertex="1" parent="1">
          <mxGeometry x="110" y="820" width="200" height="60" as="geometry" />
        </mxCell>
        <mxCell id="17" style="edgeStyle=orthogonalEdgeStyle;html=1;" edge="1" parent="1" source="2" target="3">
          <mxGeometry relative="1" as="geometry" />
        </mxCell>
        <mxCell id="18" value="น้ำ" style="edgeStyle=orthogonalEdgeStyle;html=1;exitX=0;exitY=0.5;exitDx=0;exitDy=0;entryX=0.5;entryY=0;entryDx=0;entryDy=0;" edge="1" parent="1" source="3" target="4">
          <mxGeometry relative="1" as="geometry" />
        </mxCell>
        <mxCell id="19" value="ขนม" style="edgeStyle=orthogonalEdgeStyle;html=1;exitX=1;exitY=0.5;exitDx=0;exitDy=0;" edge="1" parent="1" source="3" target="5">
          <mxGeometry relative="1" as="geometry" />
        </mxCell>
        <mxCell id="20" style="edgeStyle=orthogonalEdgeStyle;html=1;exitX=0.5;exitY=1;exitDx=0;exitDy=0;entryX=0;entryY=0.5;entryDx=0;entryDy=0;" edge="1" parent="1" source="4" target="q7gl-ZAWF5QUCbo0LGxk-33">
          <mxGeometry relative="1" as="geometry" />
        </mxCell>
        <mxCell id="21" style="edgeStyle=orthogonalEdgeStyle;html=1;entryX=1;entryY=0.5;entryDx=0;entryDy=0;exitX=0.5;exitY=1;exitDx=0;exitDy=0;" edge="1" parent="1" source="5" target="q7gl-ZAWF5QUCbo0LGxk-33">
          <mxGeometry relative="1" as="geometry" />
        </mxCell>
        <mxCell id="22" style="edgeStyle=orthogonalEdgeStyle;html=1;" edge="1" parent="1" source="6" target="7">
          <mxGeometry relative="1" as="geometry" />
        </mxCell>
        <mxCell id="23" value="มีสินค้า" style="edgeStyle=orthogonalEdgeStyle;html=1;" edge="1" parent="1" source="7" target="8">
          <mxGeometry relative="1" as="geometry" />
        </mxCell>
        <mxCell id="24" value="ไม่มีสินค้า" style="edgeStyle=orthogonalEdgeStyle;html=1;" edge="1" parent="1" source="7" target="9">
          <mxGeometry relative="1" as="geometry" />
        </mxCell>
        <mxCell id="25" style="edgeStyle=orthogonalEdgeStyle;html=1;" edge="1" parent="1" source="8" target="10">
          <mxGeometry relative="1" as="geometry" />
        </mxCell>
        <mxCell id="26" style="edgeStyle=orthogonalEdgeStyle;html=1;" edge="1" parent="1" source="10" target="11">
          <mxGeometry relative="1" as="geometry" />
        </mxCell>
        <mxCell id="27" style="edgeStyle=orthogonalEdgeStyle;html=1;" edge="1" parent="1" source="11" target="12">
          <mxGeometry relative="1" as="geometry" />
        </mxCell>
        <mxCell id="q7gl-ZAWF5QUCbo0LGxk-36" style="edgeStyle=orthogonalEdgeStyle;rounded=0;orthogonalLoop=1;jettySize=auto;html=1;entryX=0.5;entryY=0;entryDx=0;entryDy=0;" edge="1" parent="1" source="q7gl-ZAWF5QUCbo0LGxk-33" target="6">
          <mxGeometry relative="1" as="geometry" />
        </mxCell>
        <mxCell id="q7gl-ZAWF5QUCbo0LGxk-33" value="" style="ellipse;whiteSpace=wrap;html=1;aspect=fixed;" vertex="1" parent="1">
          <mxGeometry x="195" y="280" width="10" height="10" as="geometry" />
        </mxCell>
        <mxCell id="q7gl-ZAWF5QUCbo0LGxk-40" value="จบการทำงานระบบ" style="ellipse;whiteSpace=wrap;html=1;" vertex="1" parent="1">
          <mxGeometry x="130" y="980" width="160" height="60" as="geometry" />
        </mxCell>
        <mxCell id="q7gl-ZAWF5QUCbo0LGxk-44" value="" style="edgeStyle=orthogonalEdgeStyle;rounded=0;orthogonalLoop=1;jettySize=auto;html=1;" edge="1" parent="1" source="q7gl-ZAWF5QUCbo0LGxk-42" target="q7gl-ZAWF5QUCbo0LGxk-40">
          <mxGeometry relative="1" as="geometry" />
        </mxCell>
        <mxCell id="q7gl-ZAWF5QUCbo0LGxk-42" value="" style="ellipse;whiteSpace=wrap;html=1;aspect=fixed;" vertex="1" parent="1">
          <mxGeometry x="205" y="930" width="10" height="10" as="geometry" />
        </mxCell>
      </root>
    </mxGraphModel>
  </diagram>
</mxfile>
